<svg width="32" height="32" xmlns="http://www.w3.org/2000/svg">
    <!-- 32x32 圖標 -->

    <!-- 第一個餅, 由一個正圓構成 -->
    <circle
        cx="15" cy="12" r="10"
        stroke="black" stroke-width="1.5" fill="white"
    />

    <!-- 第一個餅上的小點點, 由一堆實心點構成 -->
    <circle cx="9" cy="11" r="0.6" />
    <circle cx="11" cy="8" r="1.1" />
    <circle cx="14" cy="9" r="1.0" />
    <circle cx="17" cy="6" r="1.5" />
    <circle cx="20" cy="8" r="0.9" />
    <circle cx="22" cy="12" r="1.3" />

    <!-- 第二個餅, 由一個大3/4圓和三個小1/4圓構成 -->
    <path
        d=" M 17 10
            A 10 10 0 1 0 27 20
            A 3 3 0 0 1 23 17
            A 3 3 0 0 1 20 13
            A 3 3 0 0 1 17 10"
        stroke="black" stroke-width="1.5" fill="white"
    />

    <!-- 第二個餅上的小點點, 由一批實心點構成 -->
    <circle cx="11" cy="24" r="1.3" />
    <circle cx="10" cy="20" r="1.1" />
    <circle cx="12" cy="16" r="1.1" />
    <circle cx="15" cy="14" r="1.3" />
    <circle cx="15" cy="20" r="1.5" />
    <circle cx="20" cy="23" r="1.9" />
    <circle cx="17" cy="26" r="0.9" />
    <circle cx="21" cy="26" r="0.6" />
    <circle cx="24" cy="23" r="1.3" />
    <circle cx="20" cy="19" r="0.9" />
</svg>
